<?xml version="1.0" standalone="no"?><!DOCTYPE svg PUBLIC "-//W3C//DTD SVG 1.1//EN" "http://www.w3.org/Graphics/SVG/1.1/DTD/svg11.dtd"><svg t="1693321261351" class="icon" viewBox="0 0 1024 1024" version="1.1" xmlns="http://www.w3.org/2000/svg" p-id="1629" xmlns:xlink="http://www.w3.org/1999/xlink" width="200" height="200"><path d="M655.2 699H184c-17.2 0-31.4-13.4-32.4-30.5-7.1-117.6 8-74.5 29.3-79.7 2.7-0.7 25.8-8 28.5-8l178.1 2.3c31.4 46.2 113.8 78.2 207.2 47.4 0.5-0.2 13.5-36.8 14.3-37.1 121.6-42.8 59.9-169.5 59.9-169.5s62.5 29.1 80.5 73.3c18 44.2 20.5 62.8 20.5 62.8l-45.3 45.6-69.4 93.4z" fill="#BAF4EA" p-id="1630"></path><path d="M655.2 725H184c-30.9 0-56.5-24.1-58.3-54.9-4.3-72.3 24.7-115.3 49.8-138.6 28.7-26.7 61.6-36.9 74.3-40 4.8-1.2 9.7-1.7 14.7-1.7l141.6 2c18.4 0.3 35.7 9.3 46.4 24.1 22.2 30.7 70.5 78.6 144.7 54.1 0.5-0.2 2.5-0.8 3.2-1.1 96.7-34.1 51.2-180.7 50.8-182.1-4.4-13.7 3.2-28.3 16.9-32.6 13.7-4.4 28.3 3.2 32.6 16.9 0.6 1.9 15 47.8 13.4 99.9-1 32.1-7.9 60.1-20.4 83.3-16.4 30.3-41.9 51.7-75.9 63.7-0.9 0.3-3.6 1.2-4.1 1.4-18.8 6.2-37.6 9.3-56 9.3-27.4 0-54-6.9-78.7-20.5-32.5-17.9-55.1-43.5-68.3-61.7-1.1-1.6-3.1-2.6-5.1-2.6l-141.6-2c-0.6 0-1.1 0.1-1.6 0.2-21.3 5.2-90.3 29.6-84.6 125.1 0.2 3.4 3.1 6.1 6.5 6.1h471.3c14.3 0 26 11.6 26 26-0.4 14-12 25.7-26.4 25.7zM799.1 601.7c-0.8 0-1.7 0-2.6-0.1-14.3-1.4-24.7-14.1-23.3-28.3 0.1-1.6 9.1-103.3-36.4-157.9-9.2-11-7.7-27.4 3.3-36.6 11-9.2 27.4-7.7 36.6 3.3 59.6 71.6 48.7 191.1 48.2 196.1-1.3 13.5-12.6 23.5-25.8 23.5z" fill="#2D5B56" p-id="1631"></path><path d="M668.3 754c-14.3 0-26-11.6-26-26 0-98 79.7-177.8 177.8-177.8 22.1 0 43.7 4 64.2 12 13.4 5.2 20 20.2 14.8 33.6-5.2 13.4-20.2 20-33.6 14.8-14.5-5.6-29.8-8.4-45.4-8.4-69.4 0-125.9 56.5-125.9 125.9 0 14.2-11.6 25.9-25.9 25.9z" fill="#2D5B56" p-id="1632"></path><path d="M822.9 730.9m-84.3 0a84.3 84.3 0 1 0 168.6 0 84.3 84.3 0 1 0-168.6 0Z" fill="#BAF4EA" p-id="1633"></path><path d="M822.9 843c-61.8 0-112.1-50.3-112.1-112.1s50.3-112.1 112.1-112.1S935 669.1 935 730.9 884.8 843 822.9 843z m0-168.7c-31.2 0-56.5 25.4-56.5 56.5 0 31.2 25.4 56.5 56.5 56.5 31.2 0 56.5-25.4 56.5-56.5 0.1-31.1-25.3-56.5-56.5-56.5z" fill="#2D5B56" p-id="1634"></path><path d="M315 730.9m-84.3 0a84.3 84.3 0 1 0 168.6 0 84.3 84.3 0 1 0-168.6 0Z" fill="#BAF4EA" p-id="1635"></path><path d="M427.1 730.9c0 61.8-50.3 112.1-112.1 112.1s-112.1-50.3-112.1-112.1S253.2 618.8 315 618.8s112.1 50.3 112.1 112.1z m-55.6 0c0-31.2-25.4-56.5-56.5-56.5s-56.5 25.4-56.5 56.5c0 31.2 25.4 56.5 56.5 56.5s56.5-25.3 56.5-56.5zM746.2 416.7c-61.8 0-108.4-30.7-108.4-71.3S684.4 274 746.2 274c14.2 0 27.9 1.7 40.9 4.9 18.6 4.7 31.6 21.5 31.6 40.7V371c0 19.2-13 36-31.6 40.7-13 3.3-26.8 5-40.9 5z m-56.5-71.4c1 4.6 20.3 19.4 56.5 19.4 7.1 0 14-0.6 20.6-1.7v-35.4c-6.6-1.2-13.5-1.7-20.6-1.7-36.3 0-55.5 14.8-56.5 19.4z" fill="#2D5B56" p-id="1636"></path><path d="M648.7 371.3H568c-14.3 0-26-11.6-26-26s11.6-26 26-26h80.7c14.3 0 26 11.6 26 26s-11.7 26-26 26zM418.8 467.8s-0.1 0 0 0l-171.1-0.4c-13.4 0-24.3-11.7-24.3-26s10.9-25.9 24.3-25.9h0.1l171.1 0.4c13.4 0 24.3 11.7 24.3 26-0.1 14.3-11 25.9-24.4 25.9zM241.3 196.7c12 0 21.7 9.7 21.7 21.7s-9.7 21.7-21.7 21.7-21.7-9.7-21.7-21.7 9.8-21.7 21.7-21.7m0-40c-34 0-61.7 27.7-61.7 61.7s27.7 61.7 61.7 61.7 61.7-27.7 61.7-61.7-27.6-61.7-61.7-61.7zM160.3 941.8h-0.2c-8.3-0.1-14.9-6.9-14.8-15.2l1-69.5c0.1-8.2 6.8-14.8 15-14.8h0.2c8.3 0.1 14.9 6.9 14.8 15.2l-1 69.5c-0.1 8.2-6.8 14.8-15 14.8z" fill="#2D5B56" p-id="1637"></path><path d="M210.6 892.6v0.2c-0.1 8.3-6.9 14.9-15.2 14.8l-69.5-1c-8.2-0.1-14.8-6.8-14.8-15v-0.2c0.1-8.3 6.9-14.9 15.2-14.8l69.5 1c8.2 0.1 14.8 6.8 14.8 15z" fill="#2D5B56" p-id="1638"></path><path d="M928 895m-30.9 0a30.9 30.9 0 1 0 61.8 0 30.9 30.9 0 1 0-61.8 0Z" fill="#2D5B56" p-id="1639"></path><path d="M399.9 267m-20.7 0a20.7 20.7 0 1 0 41.4 0 20.7 20.7 0 1 0-41.4 0Z" fill="#2D5B56" p-id="1640"></path><path d="M870.1 98.3v30.8M870.1 139.1c-5.5 0-10-4.5-10-10V98.3c0-5.5 4.5-10 10-10s10 4.5 10 10v30.8c0 5.5-4.5 10-10 10zM870.1 180.9v30.8M870.1 221.7c-5.5 0-10-4.5-10-10v-30.8c0-5.5 4.5-10 10-10s10 4.5 10 10v30.8c0 5.5-4.5 10-10 10zM813.4 155h30.8M844.2 165h-30.8c-5.5 0-10-4.5-10-10s4.5-10 10-10h30.8c5.5 0 10 4.5 10 10s-4.5 10-10 10z" fill="#2D5B56" p-id="1641"></path><path d="M896 155h30.8M926.8 165H896c-5.5 0-10-4.5-10-10s4.5-10 10-10h30.8c5.5 0 10 4.5 10 10s-4.5 10-10 10z" fill="#2D5B56" p-id="1642"></path><path d="M830 195.1l21.8-21.8M830 205.1c-2.6 0-5.1-1-7.1-2.9-3.9-3.9-3.9-10.2 0-14.1l21.8-21.8c3.9-3.9 10.2-3.9 14.1 0 3.9 3.9 3.9 10.2 0 14.1L837 202.2c-1.8 1.9-4.4 2.9-7 2.9z" fill="#2D5B56" p-id="1643"></path><path d="M888.4 136.7l21.8-21.8M888.4 146.7c-2.6 0-5.1-1-7.1-2.9-3.9-3.9-3.9-10.2 0-14.1l21.8-21.8c3.9-3.9 10.2-3.9 14.1 0 3.9 3.9 3.9 10.2 0 14.1l-21.8 21.8c-1.9 1.9-4.4 2.9-7 2.9z" fill="#2D5B56" p-id="1644"></path><path d="M910.2 195.1l-21.8-21.8M910.2 205.1c-2.6 0-5.1-1-7.1-2.9l-21.8-21.8c-3.9-3.9-3.9-10.2 0-14.1 3.9-3.9 10.2-3.9 14.1 0l21.8 21.8c3.9 3.9 3.9 10.2 0 14.1-1.9 1.9-4.5 2.9-7 2.9z" fill="#2D5B56" p-id="1645"></path><path d="M851.8 136.7L830 114.9M851.8 146.7c-2.6 0-5.1-1-7.1-2.9L823 122c-3.9-3.9-3.9-10.2 0-14.1 3.9-3.9 10.2-3.9 14.1 0l21.8 21.8c3.9 3.9 3.9 10.2 0 14.1-2 1.9-4.6 2.9-7.1 2.9z" fill="#2D5B56" p-id="1646"></path></svg>